<svg xmlns="http://www.w3.org/2000/svg" xmlns:xlink="http://www.w3.org/1999/xlink" version="1.1" id="&#1057;&#1083;&#1086;&#1081;_1" x="0px" y="0px" width="100px" height="100px" viewBox="0 0 100 100" enable-background="new 0 0 100 100" xml:space="preserve">
<g>
	<path d="M80,12H68c0-2.757-2.243-5-5-5H37c-2.757,0-5,2.243-5,5H20c-3.309,0-6,2.691-6,6v67c0,3.309,2.691,6,6,6h60   c3.309,0,6-2.691,6-6V50l-6,6v29H20V18h12c0,2.757,2.243,5,5,5h26c2.757,0,5-2.243,5-5h12v10l6-6v-4C86,14.691,83.309,12,80,12z    M62,17H38v-4h24V17z"/>
</g>
<path d="M87.263,28.22c-3.414,3.998-6.645,10.822-14.892,17.839l3.617,3.689c5.643-7.885,13.651-11.758,17.653-15.151  C97.642,31.205,90.677,24.222,87.263,28.22z"/>
<path d="M43.361,63.518l16.663-7.813l-13.662,9.401c1.776,0.989,3.545,2.06,5.302,3.2l14.245-12.022L53.452,69.489  c1.847,1.26,3.614,2.571,5.314,3.918l7.335-11.818l-5.75,13.099c1.359,1.128,2.665,2.279,3.918,3.452l9.329-25.321l-4.555-4.555  L36.294,60.328C38.641,61.257,41.002,62.32,43.361,63.518z"/>
</svg>